# xmcd CD database file
#
# Track frame offsets:
#	150
#	14297
#	25240
#	36397
#	49175
#	62985
#	73695
#	88852
#	101405
#	113842
#
# Disc length: 1719 seconds
#
# Revision: 0
# Processed by: cddbd v1.5.1PL0 Copyright (c) Steve Scherf et al.
# Submitted via: CDex 1.50
#
DISCID=8706b50a
DTITLE=Julie Daraîche - Les 20 plus grands succès CD2
DYEAR=1900
DGENRE=Country
TTITLE0=Hommage aux pêcheurs
TTITLE1=J'ai pour toi un lac
TTITLE2=L'appel
TTITLE3=Tu n'as pas de coeur
TTITLE4=Serment d'amour
TTITLE5=Je m'envolerai
TTITLE6=On a pas le droit
TTITLE7=Je vous aime, je vous adore
TTITLE8=Mon père et moi
TTITLE9=Un jour à la fois
EXTD=
EXTT0=
EXTT1=
EXTT2=
EXTT3=
EXTT4=
EXTT5=
EXTT6=
EXTT7=
EXTT8=
EXTT9=
PLAYORDER=
